<svg width="200" height="60" viewBox="0 0 200 60" fill="none" xmlns="http://www.w3.org/2000/svg">
<g clip-path="url(#clip0_1_727)">
<path d="M3.90619 29.3279H3.93746L6.69186 19.962H8.03127L10.7857 29.3279H10.8169L13.5114 19.962H14.6945L11.4397 30.8519H10.1316L7.36417 21.5016H7.3329L4.56026 30.8519H3.25212L0 19.962H1.18306L3.90619 29.3279Z" fill="#020203"/>
<path d="M28.6436 25.4069C28.6436 26.2385 28.4977 27.0005 28.2085 27.6982C27.9166 28.3959 27.5153 28.9983 27.002 29.5055C26.4886 30.0126 25.8814 30.4117 25.1805 30.6974C24.4795 30.9832 23.7186 31.1274 22.9003 31.1274C22.0795 31.1274 21.3212 30.9832 20.6202 30.6974C19.9192 30.4117 19.312 30.0126 18.7987 29.5055C18.2853 28.9983 17.8814 28.3959 17.5922 27.6982C17.3003 27.0005 17.157 26.2359 17.157 25.4069C17.157 24.5754 17.3029 23.8134 17.5922 23.1157C17.8814 22.418 18.2853 21.8156 18.7987 21.3084C19.312 20.8013 19.9192 20.4048 20.6202 20.1165C21.3212 19.8307 22.0821 19.6865 22.9003 19.6865C23.7212 19.6865 24.4795 19.8307 25.1805 20.1165C25.8814 20.4048 26.4886 20.8013 27.002 21.3084C27.5153 21.8156 27.9166 22.418 28.2085 23.1157C28.4977 23.8134 28.6436 24.5754 28.6436 25.4069ZM27.4606 25.4147C27.4606 24.7788 27.3563 24.1764 27.1505 23.6023C26.942 23.0282 26.6423 22.5261 26.2489 22.0911C25.8554 21.656 25.3733 21.311 24.8078 21.0536C24.2423 20.7987 23.6065 20.67 22.9003 20.67C22.1941 20.67 21.5583 20.7987 20.9928 21.0536C20.4274 21.3084 19.9479 21.656 19.5518 22.0911C19.1583 22.5261 18.856 23.0307 18.6502 23.6023C18.4417 24.1764 18.3375 24.7788 18.3375 25.4147C18.3375 26.0505 18.4417 26.653 18.6502 27.2271C18.8586 27.8012 19.1583 28.3032 19.5518 28.7331C19.9453 29.1631 20.4248 29.5055 20.9928 29.7629C21.5583 30.0178 22.1941 30.1465 22.9003 30.1465C23.6065 30.1465 24.2423 30.0178 24.8078 29.7629C25.3733 29.508 25.8528 29.1631 26.2489 28.7331C26.6423 28.3032 26.9446 27.8012 27.1505 27.2271C27.3563 26.653 27.4606 26.0505 27.4606 25.4147Z" fill="#020203"/>
<path d="M37.9831 28.9752H37.9987L41.6886 19.962H43.4007V30.8519H42.2801V21.3934H42.2489L38.2645 30.8519H37.673L33.686 21.3934H33.6547V30.8519H32.5342V19.962H34.2463L37.9831 28.9752Z" fill="#020203"/>
<path d="M47.8072 30.8519H46.5772L51.3407 19.962H52.43L57.1622 30.8519H55.9166L54.7023 27.9917H49.0059L47.8072 30.8519ZM49.4254 26.9748H54.2827L51.8541 21.1926L49.4254 26.9748Z" fill="#020203"/>
<path d="M68.1537 29.2352H68.185V19.962H69.3055V30.8519H67.9036L61.4906 21.4861H61.4593V30.8519H60.3388V19.962H61.7407L68.1537 29.2352Z" fill="#020203"/>
<path d="M132.381 21.5408C132.139 21.2087 131.831 20.9436 131.453 20.7402C131.075 20.5394 130.619 20.4364 130.085 20.4364C129.812 20.4364 129.535 20.4776 129.251 20.56C128.967 20.6423 128.712 20.7685 128.483 20.941C128.253 21.1109 128.066 21.3271 127.925 21.5846C127.784 21.8446 127.714 22.1484 127.714 22.5011C127.714 22.8538 127.782 23.1421 127.917 23.3713C128.053 23.5978 128.232 23.7935 128.459 23.9531C128.683 24.1127 128.941 24.2466 129.228 24.3495C129.514 24.4525 129.817 24.5555 130.129 24.6611C130.515 24.7846 130.906 24.9211 131.297 25.0652C131.688 25.2094 132.042 25.3999 132.355 25.6316C132.668 25.8633 132.926 26.1594 133.124 26.5172C133.322 26.8751 133.421 27.3282 133.421 27.8765C133.421 28.4249 133.314 28.8986 133.103 29.2976C132.892 29.6967 132.615 30.0236 132.277 30.2836C131.938 30.5437 131.552 30.7342 131.117 30.8577C130.682 30.9813 130.244 31.0431 129.804 31.0431C129.468 31.0431 129.134 31.0096 128.798 30.9427C128.462 30.8758 128.144 30.7754 127.839 30.6389C127.534 30.505 127.253 30.3326 126.989 30.1266C126.726 29.9206 126.497 29.6812 126.299 29.4135L127.273 28.7004C127.513 29.0942 127.852 29.4212 128.287 29.6864C128.722 29.9515 129.233 30.0828 129.819 30.0828C130.103 30.0828 130.39 30.0391 130.684 29.9515C130.979 29.864 131.242 29.7301 131.479 29.5473C131.714 29.3671 131.909 29.1432 132.06 28.8806C132.212 28.618 132.287 28.309 132.287 27.9563C132.287 27.5727 132.212 27.2561 132.06 27.0012C131.909 26.7489 131.706 26.5352 131.456 26.3653C131.206 26.1954 130.916 26.0513 130.591 25.938C130.265 25.8247 129.926 25.7114 129.569 25.5956C129.202 25.4823 128.842 25.3536 128.485 25.2068C128.128 25.0627 127.81 24.8722 127.526 24.6405C127.242 24.4062 127.015 24.1204 126.843 23.778C126.671 23.4356 126.585 23.0186 126.585 22.5217C126.585 21.9939 126.692 21.5382 126.909 21.1547C127.122 20.7711 127.404 20.457 127.75 20.2073C128.097 19.9601 128.477 19.7773 128.897 19.6641C129.316 19.5508 129.731 19.4941 130.137 19.4941C130.89 19.4941 131.537 19.6254 132.071 19.8906C132.605 20.1532 133.009 20.4673 133.28 20.8303L132.381 21.5408Z" fill="#020203"/>
<path d="M138.554 29.7687H144.511V30.7624H137.423V19.7695H144.321V20.7633H138.554V24.5348H143.945V25.5286H138.554V29.7687Z" fill="#020203"/>
<path d="M157.665 28.9757C157.477 29.2563 157.248 29.5189 156.982 29.7687C156.714 30.0184 156.406 30.2372 156.055 30.4251C155.703 30.6131 155.317 30.765 154.892 30.8757C154.468 30.9864 154.004 31.0404 153.501 31.0404C152.662 31.0404 151.888 30.8963 151.174 30.6054C150.462 30.3144 149.847 29.9154 149.334 29.4031C148.821 28.8908 148.419 28.2832 148.133 27.5778C147.844 26.875 147.7 26.1026 147.7 25.2634C147.7 24.4241 147.846 23.6544 148.141 22.949C148.435 22.2461 148.839 21.636 149.358 21.1237C149.876 20.6114 150.488 20.2097 151.197 19.9214C151.903 19.6331 152.672 19.4863 153.498 19.4863C153.907 19.4863 154.309 19.5275 154.7 19.6125C155.093 19.6974 155.46 19.8159 155.807 19.9677C156.154 20.1196 156.466 20.3024 156.75 20.5161C157.034 20.7298 157.269 20.9718 157.457 21.2395L156.513 21.9218C156.399 21.7467 156.242 21.5691 156.049 21.394C155.857 21.2189 155.627 21.0619 155.367 20.928C155.103 20.7941 154.819 20.686 154.509 20.6011C154.199 20.5187 153.868 20.4775 153.511 20.4775C152.789 20.4775 152.141 20.6062 151.57 20.8637C150.999 21.1211 150.515 21.4686 150.116 21.9089C149.717 22.3465 149.415 22.8563 149.204 23.433C148.995 24.0096 148.888 24.6198 148.888 25.2582C148.888 25.8967 148.995 26.5068 149.212 27.0835C149.425 27.6602 149.733 28.1699 150.131 28.6076C150.53 29.0452 151.015 29.3954 151.586 29.6528C152.156 29.9103 152.797 30.039 153.511 30.039C154.15 30.039 154.757 29.9103 155.335 29.6502C155.911 29.3928 156.393 28.9783 156.782 28.4094L157.665 28.9757Z" fill="#020203"/>
<path d="M162.316 30.7624H161.186V19.7695H164.453C164.998 19.7695 165.503 19.821 165.97 19.924C166.436 20.027 166.84 20.1969 167.179 20.4286C167.52 20.6629 167.784 20.9641 167.974 21.3374C168.161 21.7107 168.258 22.1663 168.258 22.7044C168.258 23.1086 168.185 23.4767 168.039 23.8063C167.893 24.1384 167.692 24.4241 167.442 24.6687C167.192 24.9107 166.892 25.1064 166.546 25.2505C166.199 25.3947 165.824 25.4899 165.415 25.5311L168.667 30.7624H167.283L164.203 25.6238H162.316V30.7624ZM162.316 24.661H164.281C165.193 24.661 165.894 24.4988 166.387 24.1718C166.879 23.8449 167.124 23.3557 167.124 22.7044C167.124 22.3414 167.057 22.0376 166.921 21.7879C166.786 21.5407 166.595 21.3374 166.356 21.1829C166.113 21.0284 165.821 20.9152 165.475 20.8405C165.128 20.7684 164.748 20.7324 164.328 20.7324H162.316V24.661Z" fill="#020203"/>
<path d="M173.3 29.7687H179.257V30.7624H172.169V19.7695H179.067V20.7633H173.3V24.5348H178.691V25.5286H173.3V29.7687Z" fill="#020203"/>
<path d="M186.611 30.7624H185.48V20.7633H181.756V19.7695H190.337V20.7633H186.613V30.7624H186.611Z" fill="#020203"/>
<path d="M198.963 21.5408C198.721 21.2087 198.413 20.9436 198.035 20.7402C197.657 20.5394 197.201 20.4364 196.667 20.4364C196.394 20.4364 196.117 20.4776 195.833 20.56C195.549 20.6423 195.294 20.7685 195.065 20.941C194.835 21.1109 194.648 21.3271 194.507 21.5846C194.366 21.8446 194.296 22.1484 194.296 22.5011C194.296 22.8538 194.364 23.1421 194.499 23.3713C194.635 23.5978 194.814 23.7935 195.041 23.9531C195.265 24.1127 195.523 24.2466 195.81 24.3495C196.096 24.4525 196.399 24.5555 196.711 24.6611C197.097 24.7846 197.488 24.9211 197.879 25.0652C198.27 25.2094 198.624 25.3999 198.937 25.6316C199.25 25.8633 199.508 26.1594 199.706 26.5172C199.904 26.8751 200.003 27.3282 200.003 27.8765C200.003 28.4249 199.896 28.8986 199.685 29.2976C199.474 29.6967 199.197 30.0236 198.859 30.2836C198.52 30.5437 198.134 30.7342 197.699 30.8577C197.264 30.9813 196.826 31.0431 196.386 31.0431C196.05 31.0431 195.716 31.0096 195.38 30.9427C195.044 30.8758 194.726 30.7754 194.421 30.6389C194.116 30.505 193.835 30.3326 193.571 30.1266C193.308 29.9206 193.079 29.6812 192.881 29.4135L193.855 28.7004C194.095 29.0942 194.434 29.4212 194.869 29.6864C195.304 29.9515 195.815 30.0828 196.401 30.0828C196.685 30.0828 196.972 30.0391 197.267 29.9515C197.561 29.864 197.824 29.7301 198.061 29.5473C198.296 29.3671 198.491 29.1432 198.642 28.8806C198.794 28.618 198.869 28.309 198.869 27.9563C198.869 27.5727 198.794 27.2561 198.642 27.0012C198.491 26.7489 198.288 26.5352 198.038 26.3653C197.788 26.1954 197.498 26.0513 197.173 25.938C196.847 25.8247 196.508 25.7114 196.151 25.5956C195.784 25.4823 195.424 25.3536 195.067 25.2068C194.71 25.0627 194.392 24.8722 194.108 24.6405C193.824 24.4062 193.597 24.1204 193.425 23.778C193.254 23.4356 193.168 23.0186 193.168 22.5217C193.168 21.9939 193.274 21.5382 193.491 21.1547C193.704 20.7711 193.986 20.457 194.332 20.2073C194.679 19.9601 195.059 19.7773 195.479 19.6641C195.898 19.5508 196.313 19.4941 196.719 19.4941C197.472 19.4941 198.119 19.6254 198.653 19.8906C199.187 20.1532 199.591 20.4673 199.862 20.8303L198.963 21.5408Z" fill="#020203"/>
<path d="M114.285 5.63825C116.651 5.6331 119.586 6.09392 123.119 7.8085C129.483 10.8927 128.086 13.0861 128.086 13.0861C128.086 13.0861 124.985 10.7459 122.03 9.51279C121.751 9.40723 121.47 9.31198 121.183 9.2193C121.183 9.2193 120.935 9.11889 120.526 8.99017C120.505 8.98502 120.487 8.97988 120.466 8.97473H120.472C119.83 8.77649 118.814 8.59114 117.735 8.45212C111.609 7.65919 108.834 9.44842 108.834 9.44842C105.928 11.0291 104.823 14.188 104.823 17.146C104.823 22.6682 108.388 25.4692 115.111 28.9112C124.831 33.8722 129.045 37.5536 129.045 45.156C129.045 53.0672 122.512 59.2021 113.027 59.8947C112.174 59.9822 111.359 60.0105 110.574 59.9873L110.509 59.9899C103.367 60.2319 99.2441 56.5865 97.05 48.392C96.7243 47.1743 96.4298 45.9489 96.1666 44.7157C95.1425 39.9221 94.3868 38.9619 90.8585 39.8603C88.2552 40.5245 77.5477 47.9003 77.5477 47.9003C74.2383 50.2534 70.9288 52.609 67.6194 54.962C67.6194 54.962 67.6194 54.962 67.6168 54.9646C67.0461 55.464 66.5197 56.0227 65.8995 56.4501C64.3881 57.4953 62.4337 58.574 60.9718 57.3614C59.3145 55.9892 61.1725 54.339 61.9073 53.0415C68.534 41.3664 75.278 29.7556 81.936 18.096C83.5047 15.3465 84.9562 12.5172 85.7614 9.43298C86.2487 7.5665 86.2722 5.82618 85.2194 4.42826C83.4787 2.0366 79.7705 2.863 78.2174 3.34442H78.2226C78.2018 3.34957 78.1836 3.35471 78.1627 3.35986C77.7536 3.48859 77.506 3.58899 77.506 3.58899C77.2194 3.68167 76.938 3.77692 76.6591 3.88248C73.7041 5.11563 70.6031 7.4558 70.6031 7.4558C70.6031 7.4558 69.209 5.26238 75.5699 2.17819C81.0422 -0.476059 85.0761 -0.370507 87.7836 0.708185C91.4969 2.07264 93.0917 5.8545 91.4057 10.7434C88.323 19.6741 82.8897 27.4232 78.2044 35.5404C76.4011 38.6658 74.5145 41.7448 72.6565 44.8393C72.6565 44.8393 71.9998 46.0493 72.3438 46.5204C72.5236 46.9401 72.8363 47.1769 73.2715 47.2438C73.2715 47.2438 74.1054 47.3468 75.4761 46.3351C76.2239 45.8047 76.964 45.2615 77.7067 44.7183C77.7067 44.7183 89.3549 36.753 94.3138 36.1094C99.2103 35.4735 101.808 36.874 103.015 43.7091C103.476 46.3196 104.146 48.9044 104.896 51.4505C105.157 52.3412 105.423 53.1264 105.707 53.8164C105.707 53.8164 107.82 59.3823 114.345 57.6394C118.254 56.293 119.83 54.1434 119.83 54.1434C121.331 52.5086 122.155 50.2894 122.155 47.7896C122.155 41.6264 118.832 39.1472 111.705 35.3061C103.2 30.7442 98.4207 26.9032 98.4207 19.4604C98.4207 13.22 103.023 7.28589 111.356 5.91114C111.367 5.91629 113.266 5.64082 114.285 5.63825Z" fill="#020203"/>
</g>
<defs>
<clipPath id="clip0_1_727">
<rect width="200" height="60" fill="white"/>
</clipPath>
</defs>
</svg>
